<svg width="51" height="24" viewBox="0 0 51 24" fill="none" xmlns="http://www.w3.org/2000/svg">
<path d="M50.4948 0.718583V0.239589C48.323 0.239589 46.1904 0.405205 44.1063 0.718583H43.99V0.737531C37.118 1.79044 30.7868 4.4824 25.4089 8.40545C19.9618 4.35304 13.5153 1.57217 6.50477 0.498124V0.478994H6.38853C4.30439 0.165616 2.17178 1.96418e-07 0 1.96418e-07V0.478994V23.7604H6.50477V7.09691C11.5494 8.01846 16.2302 9.99037 20.3136 12.7785C17.0607 16.0422 14.3288 19.8259 12.264 24H19.702C21.2924 21.4148 23.1989 19.0441 25.3672 16.9419C27.4355 18.9847 29.262 21.272 30.793 23.7604H38.2308C36.2263 19.7078 33.5939 16.0224 30.4656 12.8241C34.4814 10.1378 39.0625 8.23655 43.99 7.3365V24H50.4948V0.718583Z" fill="white"/>
</svg>
